<?xml version="1.0" encoding="UTF-8"?>
<svg id="Capa_2" data-name="Capa 2" xmlns="http://www.w3.org/2000/svg" viewBox="0 0 866 650">
  <defs>
    <style>
      .cls-1 {
        fill: #fff;
      }
    </style>
  </defs>
  <g id="Capa_1-2" data-name="Capa 1">
    <g>
      <path class="cls-1" d="M866,0v650H0V0h866ZM348,156v-90l266,152.5v89.5l-100-56v145l124.84-70.16-.82-123.36L349.08,37.44l-123.6,70.55-.32,122.35,80.87,47.34-.08,304.87c.46,21.46,19.7,35.37,40.04,26.96,24.35-10.07,50.22-32.06,74.91-43.09,6.34-4.33,10.98-11.16,12.1-18.9V204.71s-85.01-48.71-85.01-48.71Z"/>
      <path d="M348,156l85.02,48.71v342.8c-1.13,7.75-5.76,14.57-12.11,18.9-24.69,11.03-50.56,33.02-74.91,43.09-20.34,8.41-39.58-5.51-40.04-26.96l.08-304.87-80.87-47.34.32-122.35,123.6-70.55,288.93,166.04.82,123.36-124.84,70.16v-145l100,56v-89.5L348,66v90Z"/>
    </g>
  </g>
</svg>